<?xml version="1.0" encoding="iso-8859-1"?>
<!-- Uploaded to: SVG Repo, www.svgrepo.com, Generator: SVG Repo Mixer Tools -->
<svg height="800px" width="800px" version="1.1" id="Layer_1" xmlns="http://www.w3.org/2000/svg" xmlns:xlink="http://www.w3.org/1999/xlink" 
	 viewBox="0 0 512 512" xml:space="preserve">
<path style="fill:#FFDC64;" d="M8.017,206.244v230.881c0,4.722,3.829,8.551,8.551,8.551h478.864c4.722,0,8.551-3.829,8.551-8.551
	V206.244L8.017,206.244L8.017,206.244z"/>
<g>
	<polygon style="fill:#FFC850;" points="503.983,437.125 503.983,415.94 325.125,311.092 299.762,325.96 489.397,437.125 	"/>
	<polygon style="fill:#FFC850;" points="212.238,325.96 186.875,311.092 8.017,415.94 8.017,437.125 22.603,437.125 	"/>
	<path style="fill:#FFC850;" d="M238.701,310.447c10.683-6.262,23.914-6.262,34.597,0l26.464,15.514l204.222-119.716L273.299,71.015
		c-10.683-6.262-23.914-6.262-34.597,0L8.017,206.244L212.238,325.96L238.701,310.447z"/>
</g>
<path style="fill:#F1F4FB;" d="M153.89,291.755h204.222l103.117-60.448V112.181c0-4.722-3.829-8.551-8.551-8.551H59.325
	c-4.722,0-8.551,3.829-8.551,8.551v119.126L153.89,291.755z"/>
<g>
	<circle style="fill:#8CE16E;" cx="153.386" cy="197.693" r="17.102"/>
	<circle style="fill:#8CE16E;" cx="358.614" cy="197.693" r="17.102"/>
</g>
<ellipse style="fill:#D5DCED;" cx="256" cy="197.693" rx="51.307" ry="59.858"/>
<path d="M508.035,199.335l0.002-0.007l-38.793-22.741v-64.406c0-9.136-7.432-16.568-16.568-16.568H331.113l-53.761-31.515
	c-13.17-7.721-29.532-7.721-42.704,0l-53.761,31.515H59.324c-9.136,0-16.568,7.432-16.568,16.568v64.406L3.962,199.328l0.002,0.007
	C1.595,200.728,0,203.297,0,206.244v230.881c0,9.136,7.432,16.568,16.568,16.568h478.864c9.136,0,16.568-7.432,16.568-16.568
	V206.244C512,203.297,510.405,200.728,508.035,199.335z M196.386,325.96L16.033,431.684V220.237L196.386,325.96z M299.29,197.693
	c0,28.585-19.42,51.841-43.29,51.841s-43.29-23.256-43.29-51.841s19.42-51.841,43.29-51.841S299.29,169.107,299.29,197.693z
	 M294.233,145.851h91.333c3.255,16.863,16.579,30.187,33.441,33.441v36.801c-16.863,3.255-30.187,16.579-33.441,33.441h-91.333
	c12.885-12.461,21.09-31.072,21.09-51.842S307.119,158.312,294.233,145.851z M196.676,197.693c0,20.771,8.205,39.381,21.09,51.841
	h-91.333c-3.255-16.863-16.579-30.187-33.441-33.441v-36.801c16.863-3.255,30.187-16.579,33.441-33.441h91.333
	C204.881,158.312,196.676,176.923,196.676,197.693z M386.932,265.567l-30.998,18.171H156.066l-30.998-18.171L386.932,265.567
	L386.932,265.567z M277.352,303.531c-2.702-1.584-5.542-2.824-8.458-3.758h59.689l-28.822,16.895L277.352,303.531z M212.238,316.668
	l-28.822-16.895h59.689c-2.916,0.934-5.756,2.174-8.458,3.758L212.238,316.668z M242.755,317.363c8.17-4.789,18.32-4.789,26.488,0
	l205.213,120.297H37.545L242.755,317.363z M495.967,431.684L315.614,325.96l180.352-105.723V431.684z M488.132,206.244
	l-18.887,11.073v-22.143L488.132,206.244z M242.755,77.93c8.17-4.789,18.32-4.789,26.488,0l30.165,17.683H212.59L242.755,77.93z
	 M59.324,111.647h393.353c0.295,0,0.534,0.239,0.534,0.534v114.533l-52.373,30.701c0.074-14.378,11.79-26.053,26.185-26.053
	c4.427,0,8.017-3.589,8.017-8.017v-51.307c0-4.427-3.589-8.017-8.017-8.017c-14.44,0-26.188-11.748-26.188-26.188
	c0-4.427-3.589-8.017-8.017-8.017H119.182c-4.427,0-8.017,3.589-8.017,8.017c0,14.44-11.748,26.188-26.188,26.188
	c-4.427,0-8.017,3.589-8.017,8.017v51.307c0,4.427,3.589,8.017,8.017,8.017c14.395,0,26.111,11.674,26.185,26.052l-52.373-30.699
	V112.181C58.789,111.887,59.029,111.647,59.324,111.647z M42.756,217.315l-18.886-11.072l18.886-11.072V217.315z"/>
<path d="M84.977,145.894c4.427,0,8.059-3.632,8.059-8.059s-3.632-8.059-8.059-8.059c-4.427,0-8.059,3.632-8.059,8.059
	S80.55,145.894,84.977,145.894z"/>
<path d="M427.066,145.894c4.427,0,8.059-3.632,8.059-8.059s-3.632-8.059-8.059-8.059c-4.427,0-8.059,3.632-8.059,8.059
	S422.638,145.894,427.066,145.894z"/>
<path d="M153.386,222.812c13.851,0,25.119-11.268,25.119-25.119c0-13.851-11.268-25.119-25.119-25.119
	c-13.851,0-25.119,11.268-25.119,25.119C128.267,211.543,139.536,222.812,153.386,222.812z M153.386,188.607
	c5.01,0,9.086,4.076,9.086,9.086s-4.076,9.086-9.086,9.086c-5.01,0-9.086-4.076-9.086-9.086S148.376,188.607,153.386,188.607z"/>
<path d="M358.614,222.812c13.851,0,25.119-11.268,25.119-25.119c0-13.851-11.268-25.119-25.119-25.119
	c-13.851,0-25.119,11.268-25.119,25.119C333.495,211.543,344.763,222.812,358.614,222.812z M358.614,188.607
	c5.01,0,9.086,4.076,9.086,9.086s-4.076,9.086-9.086,9.086s-9.086-4.076-9.086-9.086S353.604,188.607,358.614,188.607z"/>
<path d="M253.609,205.345c11.244,3.513,11.471,5.356,11.477,6.696c-0.397,0.948-3.651,3.289-9.086,3.289
	c-5.524,0-8.749-2.383-9.102-3.331c-1.543-4.149-6.157-6.263-10.308-4.72c-4.149,1.543-6.263,6.159-4.72,10.308
	c2.31,6.211,8.39,10.882,16.113,12.807v1.502c0,4.427,3.589,8.017,8.017,8.017s8.017-3.589,8.017-8.017v-1.504
	c10.037-2.509,17.102-9.639,17.102-18.271c0-14.979-14.785-19.599-22.728-22.082c-11.244-3.513-11.471-5.356-11.477-6.696
	c0.397-0.948,3.651-3.289,9.086-3.289c5.524,0,8.749,2.383,9.102,3.331c1.543,4.15,6.157,6.264,10.308,4.72
	c4.149-1.543,6.263-6.158,4.72-10.308c-2.31-6.211-8.39-10.883-16.113-12.809v-1.502c0-4.427-3.589-8.017-8.017-8.017
	c-4.427,0-8.017,3.589-8.017,8.017v1.504c-10.037,2.509-17.102,9.639-17.102,18.271
	C230.881,198.243,245.666,202.863,253.609,205.345z"/>
</svg>